# xmcd CD database file
#
# Track frame offsets:
#	150
#	41224
#	76046
#	125892
#	156309
#	182862
#	222903
#	238504
#	260769
#	291277
#
# Disc length: 4480 seconds
#
# Revision: 0
# Processed by: cddbd v1.5.2PL0 Copyright (c) Steve Scherf et al.
# Submitted via: CDex 1.70beta2
#
DISCID=98117e0a
DTITLE=Grant Green - Blue Note Legends
DYEAR=1900
DGENRE=Jazz
TTITLE0=Grantstand
TTITLE1=Lazy Afternoon
TTITLE2=Sookie Sookie (Live)
TTITLE3=WalkIn The Night (Live)
TTITLE4=I Don't Want Nobody To Give Me Nothing
TTITLE5=Cease The Bombing
TTITLE6=The Final Comedown
TTITLE7=In The Middle
TTITLE8=Hurt So Bad
TTITLE9=Ain't It Funky Now
EXTD=
EXTT0=
EXTT1=
EXTT2=
EXTT3=
EXTT4=
EXTT5=
EXTT6=
EXTT7=
EXTT8=
EXTT9=
PLAYORDER=
